<?xml version="1.0" encoding="utf-8"?>
<!-- Generator: Adobe Illustrator 17.0.0, SVG Export Plug-In . SVG Version: 6.00 Build 0)  -->
<!DOCTYPE svg PUBLIC "-//W3C//DTD SVG 1.1//EN" "http://www.w3.org/Graphics/SVG/1.1/DTD/svg11.dtd">
<svg version="1.1" id="Слой_1" xmlns="http://www.w3.org/2000/svg" xmlns:xlink="http://www.w3.org/1999/xlink" x="0px" y="0px"
	 width="53.286px" height="52.861px" viewBox="0 0 53.286 52.861" enable-background="new 0 0 53.286 52.861" xml:space="preserve">
<path fill="#4A84C3" d="M21.882,42.926l-1.215-0.446c0.095-0.881,0.064-1.779-0.102-2.672l1.173-0.538
	c0.733-0.335,1.054-1.202,0.716-1.93l-0.685-1.478c-0.337-0.728-1.207-1.049-1.939-0.713l-1.174,0.538
	c-0.574-0.707-1.24-1.314-1.975-1.815l0.448-1.206c0.279-0.752-0.109-1.591-0.865-1.87l-1.536-0.564
	c-0.733-0.268-1.608,0.132-1.878,0.86l-0.448,1.207c-0.885-0.094-1.788-0.063-2.686,0.102l-0.541-1.167
	c-0.337-0.728-1.208-1.048-1.94-0.713l-1.487,0.68c-0.732,0.336-1.053,1.203-0.717,1.931l0.541,1.166
	c-0.71,0.572-1.321,1.234-1.824,1.966l-1.212-0.445c-0.732-0.272-1.608,0.13-1.88,0.86l-0.567,1.528
	c-0.135,0.366-0.119,0.76,0.044,1.114c0.164,0.352,0.456,0.621,0.822,0.754l1.215,0.447c-0.096,0.88-0.065,1.779,0.102,2.672
	l-1.174,0.538c-0.732,0.335-1.053,1.201-0.716,1.929l0.685,1.48c0.337,0.728,1.207,1.048,1.939,0.712l1.174-0.537
	c0.574,0.707,1.239,1.313,1.975,1.814l-0.448,1.207c-0.136,0.364-0.121,0.759,0.044,1.112c0.162,0.353,0.455,0.622,0.821,0.758
	l1.536,0.563c0.365,0.135,0.763,0.119,1.118-0.042c0.355-0.163,0.625-0.454,0.759-0.818l0.449-1.208
	c0.885,0.096,1.788,0.065,2.686-0.1l0.54,1.167c0.337,0.728,1.209,1.048,1.94,0.712l1.487-0.68c0.733-0.336,1.054-1.201,0.716-1.93
	l-0.54-1.167c0.711-0.571,1.321-1.234,1.823-1.965l1.214,0.446c0.368,0.135,0.765,0.119,1.12-0.044
	c0.354-0.163,0.623-0.453,0.759-0.817l0.567-1.528C23.026,44.042,22.638,43.204,21.882,42.926z M13.838,46.726
	c-0.767,0.352-1.58,0.529-2.418,0.529c-2.251,0-4.314-1.314-5.254-3.346c-1.334-2.883-0.063-6.306,2.833-7.632
	c0.766-0.352,1.579-0.529,2.416-0.529c2.251,0,4.315,1.313,5.256,3.345C18.005,41.975,16.734,45.399,13.838,46.726z"/>
<path fill="#4A84C3" d="M51.679,21.485l-2.042-0.75c0.161-1.481,0.108-2.991-0.171-4.493l1.972-0.903
	c1.231-0.562,1.77-2.02,1.203-3.246L51.49,9.607c-0.567-1.226-2.029-1.765-3.26-1.199l-1.974,0.906
	c-0.965-1.189-2.085-2.209-3.319-3.052l0.753-2.029c0.468-1.266-0.183-2.676-1.454-3.142L39.653,0.14
	c-1.232-0.45-2.703,0.224-3.158,1.447l-0.753,2.031c-1.488-0.159-3.007-0.107-4.515,0.17l-0.909-1.961
	c-0.567-1.225-2.03-1.763-3.261-1.199l-2.5,1.145c-1.231,0.565-1.772,2.022-1.206,3.246l0.91,1.962
	c-1.193,0.961-2.221,2.075-3.067,3.305l-2.039-0.749c-1.23-0.456-2.704,0.219-3.159,1.445l-0.953,2.57
	c-0.228,0.613-0.201,1.277,0.073,1.871c0.277,0.593,0.768,1.044,1.382,1.268l2.042,0.752c-0.162,1.479-0.109,2.991,0.171,4.493
	l-1.972,0.903c-1.232,0.565-1.771,2.019-1.204,3.243l1.151,2.488c0.567,1.223,2.03,1.762,3.261,1.197l1.973-0.904
	c0.965,1.188,2.085,2.209,3.322,3.05l-0.754,2.03c-0.229,0.611-0.202,1.276,0.073,1.87c0.274,0.593,0.765,1.046,1.38,1.273
	l2.582,0.948c0.616,0.226,1.284,0.199,1.88-0.072c0.597-0.274,1.051-0.762,1.277-1.375l0.755-2.031
	c1.488,0.161,3.006,0.108,4.516-0.169l0.907,1.961c0.567,1.223,2.031,1.763,3.262,1.197l2.499-1.144
	c1.233-0.566,1.771-2.02,1.204-3.245l-0.909-1.962c1.194-0.962,2.222-2.074,3.066-3.304l2.041,0.751
	c0.617,0.227,1.285,0.2,1.882-0.074c0.595-0.273,1.048-0.762,1.275-1.373l0.954-2.57C53.603,23.362,52.95,21.952,51.679,21.485z
	 M38.157,27.874c-1.29,0.59-2.656,0.889-4.064,0.889c-3.786,0-7.252-2.209-8.835-5.627c-2.243-4.845-0.106-10.601,4.762-12.831
	c1.288-0.591,2.656-0.889,4.062-0.889c3.785,0,7.254,2.208,8.837,5.625C45.16,19.887,43.025,25.643,38.157,27.874z"/>
</svg>
